# xmcd CD database file
#
# Track frame offsets:
#	150
#	19271
#	37366
#	55051
#	72833
#	95103
#	114736
#	136229
#	157854
#	193868
#	211036
#	229491
#	244866
#	272830
#	309545
#
# Disc length: 4365 seconds
#
# Revision: 0
# Processed by: cddbd v1.5.1PL2 Copyright (c) Steve Scherf et al.
# Submitted via: CDex 1.51
#
DISCID=de110b0f
DTITLE=Montreux Jazz Festival - Montreux Jazz Festival Off 1998
DYEAR=1998
DGENRE=Jazz
TTITLE0=Rosalita
TTITLE1=Man In the Miror
TTITLE2=Black Night
TTITLE3=Hope You Call Again
TTITLE4=Discount City
TTITLE5=Rythm For The Fox
TTITLE6=Accelerator Man
TTITLE7=Just a Gigolo
TTITLE8=Of Courage and Spirit
TTITLE9=Doce Vendaval
TTITLE10=Resistencia Heroica
TTITLE11=Reltalhos de Azul
TTITLE12=Altos de Chavon
TTITLE13=Coqueton
TTITLE14=¿Que Esta Pasando?
EXTD=YEAR: 1998
EXTT0=
EXTT1=
EXTT2=
EXTT3=
EXTT4=
EXTT5=
EXTT6=
EXTT7=
EXTT8=
EXTT9=
EXTT10=
EXTT11=
EXTT12=
EXTT13=
EXTT14=
PLAYORDER=
